<?xml version="1.0" encoding="utf-8"?>
<!-- Generator: Adobe Illustrator 26.5.0, SVG Export Plug-In . SVG Version: 6.00 Build 0)  -->
<svg version="1.1" id="Layer_1" xmlns="http://www.w3.org/2000/svg" xmlns:xlink="http://www.w3.org/1999/xlink" x="0px" y="0px"
	 viewBox="0 0 428 428" style="enable-background:new 0 0 428 428;" xml:space="preserve">
<style type="text/css">
	.st0{fill:#2659A8;}
	.st1{fill:none;stroke:#FFFFFF;stroke-width:0.75;stroke-miterlimit:10;}
	.st2{fill:#FFFFFF;}
	.st3{fill:none;stroke:#FFFFFF;stroke-width:0.5;stroke-miterlimit:10;}
	.st4{fill:none;stroke:#FFFFFF;stroke-miterlimit:10;}
</style>
<path class="st0" d="M39.06,77.9l35.94-14.19l52.03-0.47c0,0-3.08,45.64,0.94,61.49l-53.93,0.24l-36.43-12.07
	C37.64,112.91,35.99,82.16,39.06,77.9z"/>
<path class="st0" d="M170.74,52.24c0,0-2.3,62.8,0.29,82.43c0,0-20.81,1.65-33.59-0.94c0,0-6.71-4.36-7.87-8.13
	s-0.18-64.66-0.18-64.66s4.25-5.77,16.14-8.16L170.74,52.24z"/>
<path class="st0" d="M166.78,148.85l45.88,1.41c0,0,14.66,1.9,12.77,20.81c0,0,3.78,14.43-6.15,17.97l-0.47,3.78
	c0,0,20.87-1.25,21.76,5.68c0,0,3.19,4.2,3.19,8.16l15.49,0.47c0,0,7.87-2.3,7.93-14.78l-6.74-38.91c0,0-2.25-12.42-0.47-17.86
	c0,0,1.77-8.51,11.82-8.76l45.88,0.24c0,0,9.46-1.54,12.54,4.96l7.57,12.07c0,0,21.05-3.55,24.6-13.48l-1.41-3.31
	c0,0,16.2-11.82,14.43-33.35s-12.3-28.14-12.3-28.14s0.94-9.23-8.76-13.01l-11.58-5.21c0,0-5.79-0.71-7.09,3.78l-6.62-0.24
	c0,0,1.77-7.09-11.11-5.44h-32.88l-6.15,2.84c0,0-28.85,2.48-42.57-0.94c0,0-10.17-5.92-14.19,3.55h-6.86c0,0,0.12-5.09-9.23-4.25
	h-13.72l-5.92,4.25l-10.41,0.24c0,0-4.14,28.61-0.71,82.54c0,0-0.47,3.55-8.51,5.21v9.72H166.78z"/>
<path class="st0" d="M186.41,151.46c0,0,18.93,5.09,18.44,13.48l0.94,20.81c0,0,8.4,6.39,16.32-1.18c0,0,3.42,0.83,1.9-19.87
	c0,0-0.47-11.71-14.19-13.25L186.41,151.46L186.41,151.46z"/>
<path class="st0" d="M243.64,209.76c0,0-0.18,40.79,8.16,59.6c0,0,22.88,5.5,68.12,1.07c0,0,1.41-54.46-20.22-105.02
	c0,0-6.57-20.05,18.1-19.51h16.67c0,0,1.95-9.76-12.07-15.96l-50.73-0.71c0,0-13.12,0.71-9.93,16.67l7.45,43.99
	c0,0,1.77,16.67-9.58,19.51L243.64,209.76z"/>
<path class="st0" d="M252.87,272.2c0,0,5.85,15.44-9.23,15.26L176.59,291c0,0-6.03,1.77-3.19,8.16c0,0,13.3-0.89,9.23,12.42
	l-12.07,1.07l-0.36-6.03c0,0-11.35-2.3-12.42,6.39l-1.77,7.98l-3.91,4.07c0,0,109.15,16.18,211.8,1.5l-1.95-7.71
	c0,0-6.48-18.53-15.44-24.83c0,0-30.74-6.3-26.96-20.85C319.56,273.18,287.45,276.98,252.87,272.2z"/>
<path class="st0" d="M152.56,328.14c0,0,4.25-4.02,4.25,44.47l12.77,11.82l73.8,5.68l5.21-1.9l43.99-0.47l3.78,2.84l35.94-1.9
	l21.76-8.99l7.57-8.51l1.41-36.9l2.51-5.14C365.56,329.14,274.57,347.32,152.56,328.14z"/>
<line class="st1" x1="74.9" y1="68.44" x2="125.5" y2="68.44"/>
<line class="st1" x1="73.23" y1="82.04" x2="123.85" y2="82.04"/>
<line class="st1" x1="73.41" y1="102.96" x2="124.03" y2="102.96"/>
<line class="st1" x1="75.38" y1="119.62" x2="126" y2="119.62"/>
<path class="st2" d="M343.39,89.73H203.03c-1.99,0-3.6-1.63-3.6-3.6V68.73c0-1.99,1.63-3.6,3.6-3.6H343.4c1.99,0,3.6,1.63,3.6,3.6
	v17.39C347,88.11,345.38,89.73,343.39,89.73z"/>
<path class="st2" d="M335.61,107.23h-97.37c-0.93,0-1.7-0.76-1.7-1.7v-8.15c0-0.93,0.76-1.7,1.7-1.7h97.37c0.93,0,1.7,0.76,1.7,1.7
	v8.15C337.31,106.46,336.55,107.23,335.61,107.23z"/>
<path class="st0" d="M338.15,86.36H209.21c-1.52,0-2.76-1.23-2.76-2.76V70.3c0-1.52,1.23-2.76,2.76-2.76h128.95
	c1.52,0,2.76,1.23,2.76,2.76V83.6C340.91,85.11,339.67,86.36,338.15,86.36z"/>
<line class="st3" x1="279.18" y1="70.51" x2="329.8" y2="70.51"/>
<line class="st3" x1="284.14" y1="73.73" x2="334.76" y2="73.73"/>
<line class="st3" x1="288.76" y1="77.28" x2="339.37" y2="77.28"/>
<path class="st4" d="M243.41,225.01c0,0,10.7,4.96,34.29-2.48"/>
<path class="st4" d="M246.6,251.44c0,0,10.7,4.96,34.29-2.48"/>
</svg>
