<?xml version="1.0" encoding="UTF-8" standalone="no" ?>
<!DOCTYPE svg PUBLIC "-//W3C//DTD SVG 1.1//EN" "http://www.w3.org/Graphics/SVG/1.1/DTD/svg11.dtd">
<svg xmlns="http://www.w3.org/2000/svg" xmlns:xlink="http://www.w3.org/1999/xlink" version="1.1" width="640" height="480" viewBox="0 0 640 480" xml:space="preserve">
<desc>Created with Fabric.js 3.6.6</desc>
<defs>
</defs>
<g transform="matrix(1.48 0 0 1.48 319.72 273.65)"  >
<g style=""   >
		<g transform="matrix(1 0 0 1 -108.78 -84.29)"  >
<polyline style="stroke: rgb(26,24,24); stroke-width: 1; stroke-dasharray: none; stroke-linecap: butt; stroke-dashoffset: 0; stroke-linejoin: miter; stroke-miterlimit: 10; fill: rgb(255,255,255); fill-rule: nonzero; opacity: 1;"  points="14.79,-82.17 17.11,-82.53 17.32,-81.17 13.73,-75.07 9.24,-72.49 -4.83,-59.87 -13.91,-51.35 -24.33,-37.96 -25.11,-38.83 -22.39,-44.15 -13.57,-56.02 -2.75,-66.46 12.32,-78.55 15.92,-84.65 14.27,-87.19 1.03,-81.49 -19.54,-68.46 -41.84,-49.95 -59.68,-29.28 -73.77,-8.73 -73.49,0.99 -76.36,10.49 -80.89,17.45 -90.88,23.79 -98.73,38.12 -98.6,41.87 -94.29,45.41 -77.24,55.27 -72.34,56.01 -67.33,54.5 -59.8,41.79 -60.55,35.43 -58.49,27.37 -55.02,22.04 -49.02,15.43 -41.7,11.51 -33.97,11.65 -29.24,12.88 -20.73,17.14 -8.79,24.16 54.39,63.21 68.32,73.37 82.81,87.19 98.73,62.7 80.29,54.38 65.78,45.68 3.89,5.64 -13.89,-5.65 -23.49,-11.89 -29.6,-19.71 -29.42,-28.3 -24.33,-37.96 " />
</g>
		<g transform="matrix(1 0 0 1 75.4 55.32)"  >
<polygon style="stroke: none; stroke-width: 1; stroke-dasharray: none; stroke-linecap: butt; stroke-dashoffset: 0; stroke-linejoin: miter; stroke-miterlimit: 4; fill: rgb(38,89,168); fill-rule: nonzero; opacity: 1;"  points="101.37,36.46 74.34,21.69 29.77,-6.35 -3,-28.4 -39.44,-51.71 -68.76,-69.28 -86.89,-81.06 -89.22,-79.21 -105.45,-54.25 -105.85,-52.95 -83.77,-36.79 -50.7,-13.3 -34.57,-2.07 0.93,20.76 20.71,32.88 60.99,62.55 68.74,71.32 74.88,81.05 80.27,80.81 89.68,72.47 99.24,57.76 105.86,43.36 " />
</g>
</g>
</g>
</svg>