<?xml version="1.0" encoding="utf-8"?>
<!-- Generator: Adobe Illustrator 26.5.0, SVG Export Plug-In . SVG Version: 6.00 Build 0)  -->
<svg version="1.1" id="Layer_1" xmlns="http://www.w3.org/2000/svg" xmlns:xlink="http://www.w3.org/1999/xlink" x="0px" y="0px"
	 viewBox="0 0 428 428" style="enable-background:new 0 0 428 428;" xml:space="preserve">
<style type="text/css">
	.st0{fill:#2659A8;}
	.st1{fill:none;stroke:#1A1818;stroke-miterlimit:10;}
	.st2{fill:#FFFFFF;stroke:#1A1818;stroke-width:2;stroke-miterlimit:10;}
	.st3{fill:none;stroke:#1A1818;stroke-width:0.5;stroke-miterlimit:10;}
	.st4{fill:none;stroke:#1A1818;stroke-width:0.75;stroke-miterlimit:10;}
</style>
<polygon class="st0" points="321.88,408.63 278.8,370.3 248.38,341.45 223.49,312.6 201.75,282.17 185.94,252.14 180.41,238.7 
	205.31,213.01 211.23,216.57 219.93,244.24 233.76,270.71 252.72,296.01 275.26,320.89 291.85,339.07 321.88,361.2 345.99,386.89 
	345.19,407.44 339.67,411.39 "/>
<polygon class="st0" points="402.33,331.21 366.44,286.08 339.32,254.1 311.9,227.64 282.72,204.25 253.61,186.81 240.5,180.54 
	213.47,203.98 216.7,210.1 243.83,220.31 269.5,235.58 293.71,255.92 317.32,279.79 334.55,297.38 354.98,328.58 379.29,354.07 
	399.86,354.43 404.11,349.12 "/>
<polygon class="st1" points="182.12,236.82 168.56,211.04 149.59,179.42 133.78,169.16 117.58,150.57 86.76,111.85 40.91,47.84 
	30.65,31.23 35.08,27.06 87.94,63.25 134.58,100.39 150.64,114.35 175.4,139.13 179.62,147.03 201.24,216.99 "/>
<polyline class="st2" points="34.68,27.47 101.11,83.8 141.68,120.68 151.43,126.21 163.81,137.54 170.66,145.44 193.05,161.52 
	233.43,186.35 213.38,203.77 189.63,196.03 165.66,186.28 149.59,179.42 "/>
<polyline class="st3" points="233.73,186.44 237.91,182.65 222.3,173.37 195.43,158.09 179.62,147.03 "/>
<polyline class="st4" points="170.66,145.44 169.79,157.56 165.4,167.23 156.61,176 149.16,179.17 "/>
<polyline class="st3" points="151.43,126.21 140.28,122.44 128.16,123.67 122.54,127.88 "/>
<line class="st4" x1="31.91" y1="29.88" x2="72.84" y2="76.07"/>
<line class="st1" x1="122.29" y1="128.69" x2="74.94" y2="77.48"/>
<line class="st1" x1="91.32" y1="95.26" x2="45.48" y2="45.55"/>
</svg>
