<?xml version="1.0" encoding="utf-8"?>
<!-- Generator: Adobe Illustrator 26.5.0, SVG Export Plug-In . SVG Version: 6.00 Build 0)  -->
<svg version="1.1" id="Layer_1" xmlns="http://www.w3.org/2000/svg" xmlns:xlink="http://www.w3.org/1999/xlink" x="0px" y="0px"
	 viewBox="0 0 428 428" style="enable-background:new 0 0 428 428;" xml:space="preserve">
<style type="text/css">
	.st0{fill:#2659A8;}
	.st1{fill:#FFFFFF;stroke:#1A1818;stroke-miterlimit:10;}
	.st2{fill:none;stroke:#000100;stroke-miterlimit:10;}
	.st3{fill:#FFFFFF;stroke:#000100;stroke-miterlimit:10;}
</style>
<polygon class="st0" points="9.47,326.94 17.95,314.01 33.96,301.13 188.55,150.81 219.9,134.03 241.93,157.11 186.88,209.55 
	83.31,302.48 35.16,337.74 16.86,340.92 8.55,336.17 "/>
<polygon class="st0" points="37.43,404.55 41.97,388.69 51.2,375.81 76.67,346.8 108.68,310.75 136.8,281.55 165.67,252.43 
	200.81,219.98 238.24,186.95 256.96,172.88 281.21,201.77 266.04,213.47 256.47,225.94 218.85,256.32 181.87,288.25 133.71,334.04 
	79.54,389.94 63,404.91 49.54,408.82 40.34,408.17 "/>
<polygon class="st1" points="260.33,176.69 270.52,167.73 277.97,158.49 283.31,147.34 287.04,127.28 291.61,106.03 298.76,76.92 
	302.17,64.63 306.32,55.9 313.28,46.62 322.73,37.52 332.5,30.96 343.63,26.5 360.84,20.99 373.78,19.17 392.21,21.02 407.3,27.66 
	419.05,38.55 418.11,44.5 374.21,44.05 360.94,47.09 348.84,58.01 343.97,69.71 341.88,87.87 330.2,148.01 326.4,158.78 
	317.86,165.68 307.63,171.7 289.97,183.22 274.51,193.77 "/>
<polygon class="st1" points="221.68,135.86 266.8,96.8 300.92,69.68 291.61,106.03 287.04,127.28 271.54,131.54 258.67,139.38 
	239.89,154.82 "/>
<line class="st2" x1="264.35" y1="136.13" x2="285.03" y2="137.85"/>
<polygon class="st3" points="334.93,124.01 340.76,121.34 346.64,116.27 351.67,107.45 357.16,100.09 362.26,93.82 368.7,89.07 
	378.64,84.43 397.55,76.78 412.18,67.83 421.45,60.89 423,55.06 417.46,47.74 373.71,53.43 372.23,58.12 365.78,63.15 354.66,64.6 
	351.06,63.77 346.58,63.17 343.97,69.71 341.88,87.87 "/>
<polygon class="st3" points="294.69,149.68 304.31,102.32 314.22,93.75 323.91,98.47 313.77,149.57 308.31,155.69 301.3,157.06 
	296.41,153.57 "/>
<ellipse transform="matrix(0.7569 -0.6535 0.6535 0.7569 18.9237 227.589)" class="st0" cx="315.39" cy="88.36" rx="16.99" ry="14.82"/>
</svg>
