<?xml version="1.0" encoding="utf-8"?>
<!-- Generator: Adobe Illustrator 26.5.0, SVG Export Plug-In . SVG Version: 6.00 Build 0)  -->
<svg version="1.1" id="Layer_1" xmlns="http://www.w3.org/2000/svg" xmlns:xlink="http://www.w3.org/1999/xlink" x="0px" y="0px"
	 viewBox="0 0 428 428" style="enable-background:new 0 0 428 428;" xml:space="preserve">
<style type="text/css">
	.st0{fill:#2659A8;}
	.st1{fill:none;stroke:#FFFFFF;stroke-width:0.75;stroke-miterlimit:10;}
	.st2{fill:#FFFFFF;stroke:#000100;stroke-miterlimit:10;}
	.st3{fill:#2659A8;stroke:#FFFFFF;stroke-miterlimit:10;}
	.st4{fill:none;stroke:#FFFFFF;stroke-width:0.25;stroke-miterlimit:10;}
	.st5{fill:#FFFFFF;}
	.st6{fill:none;stroke:#FFFFFF;stroke-width:3;stroke-miterlimit:10;}
	.st7{fill:#000100;stroke:#FFFFFF;stroke-miterlimit:10;}
</style>
<polygon class="st0" points="200.23,102.62 218.77,100.23 227.77,88.66 224.57,73.68 221.28,66.82 194.03,49.17 190.65,32.15 
	207.49,15.77 233.56,16.4 247.27,34.82 239.1,56.22 252.27,81.03 281.76,92.24 336.36,101.18 354.18,105.2 362.01,115.01 
	361.73,132.02 351.39,144.67 345.42,154.55 375.97,284.4 385.34,298.64 404.48,319.85 410.71,336.77 412.1,386.04 407.38,399.31 
	396.33,407.42 272.31,405.75 262.51,398.97 252.06,292.67 298.04,288.07 317.19,283.72 321.21,273.21 293.99,182.5 263.98,182.39 
	228.99,139.52 "/>
<line class="st1" x1="206.99" y1="107.51" x2="297.35" y2="107.42"/>
<line class="st1" x1="306.22" y1="113.17" x2="215.86" y2="113.25"/>
<line class="st1" x1="224.1" y1="119.58" x2="314.45" y2="119.49"/>
<circle class="st2" cx="139.01" cy="222.01" r="112.66"/>
<polygon class="st3" points="58.68,94.53 96.37,80.47 163.28,73.74 223.74,117.43 283.66,187.84 291.49,208.6 287.45,259.29 
	272.11,302.22 245,341.41 206.81,298.18 207.26,283.2 219.39,258.18 224.68,192.62 173.22,137.36 148.99,132.62 102.39,139.19 
	86.81,137.04 "/>
<polygon class="st0" points="220.51,320.81 191.9,340.75 146.55,350.7 103.8,344.72 54.63,316.08 20.53,265.2 25.26,259.23 
	49.41,264.77 65.88,277.16 76.82,291.78 99.44,307.29 133.39,315.95 169.74,310.27 201.83,288.29 202.64,259.15 231.68,260.77 
	232.63,306.74 "/>
<polyline class="st4" points="218.73,258.11 207.26,283.2 206.81,298.18 245,341.41 "/>
<path class="st5" d="M397.29,350.63l-105.15,0.1c-1.31,0-2.4-1.12-2.4-2.5l-0.01-14.16c0-1.37,1.07-2.51,2.39-2.51l105.15-0.1
	c1.31,0,2.4,1.12,2.4,2.5l0.01,14.16C399.68,349.5,398.6,350.62,397.29,350.63z"/>
<path class="st6" d="M391.73,367.77l-76.15,0.07c-0.64,0-1.18-0.53-1.18-1.17l-0.01-6.64c0-0.64,0.53-1.18,1.17-1.18l76.15-0.07
	c0.64,0,1.18,0.53,1.18,1.17l0.01,6.64C392.91,367.23,392.38,367.77,391.73,367.77z"/>
<path class="st0" d="M395.61,348.36l-100.94,0.1c-1.05,0-1.91-0.86-1.91-1.91l-0.01-10.82c0-1.05,0.86-1.91,1.91-1.91l100.94-0.1
	c1.05,0,1.91,0.86,1.91,1.91l0.01,10.82C397.52,347.5,396.66,348.36,395.61,348.36z"/>
<line class="st1" x1="347.59" y1="339.2" x2="387.02" y2="339.16"/>
<line class="st1" x1="390.9" y1="341.67" x2="351.46" y2="341.7"/>
<line class="st1" x1="355.06" y1="344.46" x2="394.5" y2="344.43"/>
<circle class="st7" cx="140.91" cy="221.34" r="11.13"/>
</svg>
