<?xml version="1.0" encoding="utf-8"?>
<!-- Generator: Adobe Illustrator 26.5.0, SVG Export Plug-In . SVG Version: 6.00 Build 0)  -->
<svg version="1.1" id="Layer_1" xmlns="http://www.w3.org/2000/svg" xmlns:xlink="http://www.w3.org/1999/xlink" x="0px" y="0px"
	 viewBox="0 0 428 428" style="enable-background:new 0 0 428 428;" xml:space="preserve">
<style type="text/css">
	.st0{fill:#FFFFFF;stroke:#000100;stroke-width:0.5;stroke-miterlimit:10;}
	.st1{fill:#FFFFFF;stroke:#000100;stroke-width:0.75;stroke-miterlimit:10;}
	.st2{fill:#2659A8;}
	.st3{fill:none;stroke:#FFFFFF;stroke-width:0.5;stroke-miterlimit:10;}
</style>
<polygon class="st0" points="359.78,66.82 341.94,78.39 352.01,59.65 358.44,44.4 381.36,23.21 392.13,32.63 375.14,58.63 "/>
<polygon class="st1" points="359.78,66.82 227.51,207.72 245.17,227.76 242.86,240.9 230.21,241.12 219.38,246 208.77,255.05 
	200.96,266.29 192.52,280.04 185.27,294.58 175.33,302.43 163.47,315.32 148.41,340.05 142.29,353.94 130.47,368.24 113.91,375.77 
	98.23,385.25 66.39,410.15 58.49,414.41 50.24,416.34 38.9,410.21 29.1,401.72 21.47,389.47 21.5,378.55 25.96,370.31 47.61,339.11 
	56.3,321.82 63.76,305.05 78.36,292.56 89.57,286.64 113.46,272.75 126,259.16 133.46,248.8 149.09,239.11 163.25,229.19 
	174.23,220.2 182.19,209.17 185.32,199.94 185.84,188.36 197.88,181.44 218.9,199.43 352.01,59.65 "/>
<polygon class="st2" points="227.51,207.72 245.17,227.76 242.86,240.9 230.21,241.12 219.38,246 208.77,255.05 192.52,280.04 
	185.27,294.58 175.33,302.43 163.47,315.32 148.41,340.05 142.29,353.94 130.47,368.24 113.91,375.77 98.23,385.25 66.39,410.15 
	58.49,414.41 50.24,416.34 38.9,410.21 29.1,401.72 21.47,389.47 21.5,378.55 25.96,370.31 47.61,339.11 56.3,321.82 63.76,305.05 
	78.36,292.56 89.57,286.64 113.46,272.75 126,259.16 133.46,248.8 149.09,239.11 163.25,229.19 174.23,220.2 182.19,209.17 
	185.32,199.94 184.34,184.33 197.88,181.44 218.9,199.43 "/>
<path class="st3" d="M192.8,200.06c0,0-6.52,34.36-54.96,50.75"/>
<path class="st3" d="M225.69,232.84c0,0-33.61,9.68-45.41,59.45"/>
<path class="st3" d="M202.09,211c0,0-22.73,36.74-53.03,51.69"/>
<path class="st3" d="M214.64,224.17c0,0-35.2,25.05-48.17,56.25"/>
</svg>
