<?xml version="1.0" encoding="utf-8"?>
<!-- Generator: Adobe Illustrator 26.5.0, SVG Export Plug-In . SVG Version: 6.00 Build 0)  -->
<svg version="1.1" id="Layer_1" xmlns="http://www.w3.org/2000/svg" xmlns:xlink="http://www.w3.org/1999/xlink" x="0px" y="0px"
	 viewBox="0 0 428 428" style="enable-background:new 0 0 428 428;" xml:space="preserve">
<style type="text/css">
	.st0{fill:#2659A8;}
	.st1{fill:none;stroke:#FFFFFF;stroke-width:2;stroke-miterlimit:10;}
	.st2{fill:none;stroke:#FFFFFF;stroke-width:0.75;stroke-miterlimit:10;}
	.st3{fill:#FFFFFF;}
</style>
<polygon class="st0" points="378.13,391.43 352.39,401.02 326.12,403.19 306.73,397.38 293.64,387.05 284.04,364.16 270.51,326.99 
	255.21,300.07 224.54,262.82 187.58,227.26 132.42,176.18 86.94,132.01 28.95,73.5 15.89,59.17 13.07,50.58 15.97,42.61 
	35.43,31.27 46.29,26.74 56.58,26.8 77.06,44.01 136.75,103.1 179.37,147.84 222.57,193.14 259.51,231.01 286.83,251.12 
	331.3,267.3 362.7,268.01 330.36,349.53 333.69,368.96 375.32,382.28 381.02,385.74 "/>
<polygon class="st1" points="156,138.02 125.12,151.02 245.07,268.06 279.15,309.9 291.86,273.97 278.77,265.92 "/>
<polygon class="st2" points="310.08,325.88 319.59,326.91 334.32,290.92 327.68,284.71 291.86,273.97 279.15,309.9 "/>
<polygon class="st2" points="301.6,276.91 288.28,311.21 308.74,320.19 322.7,283.22 "/>
<path class="st2" d="M316.84,309.21c0,0-12.71,1.16-28.94-7.99"/>
<path class="st2" d="M320.49,301.3c0,0-12.71,1.16-28.94-7.99"/>
<path class="st2" d="M323.67,292.47c0,0-12.71,1.16-28.94-7.99"/>
<path class="st0" d="M403.91,333.68l1.93-4.75c0,0-6.24-28.96-41.22-60.91l-20.8,52.44l6.5-7.02l5.91-2.06l3.6,2.49L403.91,333.68z"
	/>
<polygon class="st3" points="85.06,63.28 52.89,82.36 26.08,55.3 25.07,48.35 44.53,37.59 56.33,38.4 70.75,48.75 "/>
</svg>
