<?xml version="1.0" encoding="utf-8"?>
<!-- Generator: Adobe Illustrator 26.5.0, SVG Export Plug-In . SVG Version: 6.00 Build 0)  -->
<svg version="1.1" id="Layer_1" xmlns="http://www.w3.org/2000/svg" xmlns:xlink="http://www.w3.org/1999/xlink" x="0px" y="0px"
	 viewBox="0 0 428 926" style="enable-background:new 0 0 428 926;" xml:space="preserve">
<style type="text/css">
	.st0{fill:none;}
	.st1{fill:#E5E7E7;}
	.st2{font-family:'Darkmode-DarkmodeOffXBold';}
	.st3{font-size:55.2912px;}
	.st4{fill:none;stroke:#E5E7E7;stroke-width:15;stroke-miterlimit:10;}
	.st5{stroke:#E5E7E7;stroke-miterlimit:10;}
	.st6{fill:#E5E7E7;stroke:#000000;stroke-width:3;stroke-miterlimit:10;}
</style>
<rect x="37.13" y="409.35" class="st0" width="443.3" height="57.82"/>
<text transform="matrix(1 0 0 1 37.1314 451.3695)" class="st1 st2 st3">Smart Locker</text>
<path class="st4" d="M252.73,228.14c0,56.72-20.03,102.71-44.74,102.71s-44.74-45.98-44.74-102.71s-1.57-102.08,44.74-102.71
	C252.42,124.83,252.73,171.41,252.73,228.14z"/>
<circle class="st1" cx="209.72" cy="292.58" r="93.34"/>
<circle class="st5" cx="209.93" cy="291.12" r="31.67"/>
<line class="st6" x1="209.16" y1="209.24" x2="209.16" y2="248.69"/>
<line class="st6" x1="208.89" y1="333.7" x2="208.89" y2="373.15"/>
<line class="st6" x1="291.95" y1="289.67" x2="252.5" y2="289.67"/>
<line class="st6" x1="167.49" y1="289.39" x2="128.04" y2="289.39"/>
<line class="st6" x1="258.31" y1="243.1" x2="234.73" y2="266.69"/>
<line class="st6" x1="183.74" y1="317.35" x2="160.15" y2="340.93"/>
<line class="st6" x1="259.73" y1="340.69" x2="236.14" y2="317.1"/>
<line class="st6" x1="185.48" y1="266.11" x2="161.9" y2="242.52"/>
</svg>
